<svg id="visual" viewBox="0 0 900 600" width="900" height="600" xmlns="http://www.w3.org/2000/svg" xmlns:xlink="http://www.w3.org/1999/xlink" version="1.1"><path d="M0 192L21.5 185C43 178 86 164 128.8 171.5C171.7 179 214.3 208 257.2 213C300 218 343 199 385.8 190.2C428.7 181.3 471.3 182.7 514.2 193.2C557 203.7 600 223.3 642.8 233.3C685.7 243.3 728.3 243.7 771.2 243C814 242.3 857 240.7 878.5 239.8L900 239L900 0L878.5 0C857 0 814 0 771.2 0C728.3 0 685.7 0 642.8 0C600 0 557 0 514.2 0C471.3 0 428.7 0 385.8 0C343 0 300 0 257.2 0C214.3 0 171.7 0 128.8 0C86 0 43 0 21.5 0L0 0Z" fill="#cd9fe8"></path><path d="M0 155L21.5 163.2C43 171.3 86 187.7 128.8 184.7C171.7 181.7 214.3 159.3 257.2 146.2C300 133 343 129 385.8 127.3C428.7 125.7 471.3 126.3 514.2 128C557 129.7 600 132.3 642.8 131.5C685.7 130.7 728.3 126.3 771.2 129.5C814 132.7 857 143.3 878.5 148.7L900 154L900 0L878.5 0C857 0 814 0 771.2 0C728.3 0 685.7 0 642.8 0C600 0 557 0 514.2 0C471.3 0 428.7 0 385.8 0C343 0 300 0 257.2 0C214.3 0 171.7 0 128.8 0C86 0 43 0 21.5 0L0 0Z" fill="#a677c1"></path><path d="M0 94L21.5 103.8C43 113.7 86 133.3 128.8 135.7C171.7 138 214.3 123 257.2 113.5C300 104 343 100 385.8 101.7C428.7 103.3 471.3 110.7 514.2 113.7C557 116.7 600 115.3 642.8 110.7C685.7 106 728.3 98 771.2 95.7C814 93.3 857 96.7 878.5 98.3L900 100L900 0L878.5 0C857 0 814 0 771.2 0C728.3 0 685.7 0 642.8 0C600 0 557 0 514.2 0C471.3 0 428.7 0 385.8 0C343 0 300 0 257.2 0C214.3 0 171.7 0 128.8 0C86 0 43 0 21.5 0L0 0Z" fill="#80509c"></path><path d="M0 94L21.5 97.2C43 100.3 86 106.7 128.8 103C171.7 99.3 214.3 85.7 257.2 85.8C300 86 343 100 385.8 99.3C428.7 98.7 471.3 83.3 514.2 80.7C557 78 600 88 642.8 88.8C685.7 89.7 728.3 81.3 771.2 75.7C814 70 857 67 878.5 65.5L900 64L900 0L878.5 0C857 0 814 0 771.2 0C728.3 0 685.7 0 642.8 0C600 0 557 0 514.2 0C471.3 0 428.7 0 385.8 0C343 0 300 0 257.2 0C214.3 0 171.7 0 128.8 0C86 0 43 0 21.5 0L0 0Z" fill="#5b2b78"></path><path d="M0 24L21.5 24C43 24 86 24 128.8 25.3C171.7 26.7 214.3 29.3 257.2 35.8C300 42.3 343 52.7 385.8 56.5C428.7 60.3 471.3 57.7 514.2 51.3C557 45 600 35 642.8 31.2C685.7 27.3 728.3 29.7 771.2 30.7C814 31.7 857 31.3 878.5 31.2L900 31L900 0L878.5 0C857 0 814 0 771.2 0C728.3 0 685.7 0 642.8 0C600 0 557 0 514.2 0C471.3 0 428.7 0 385.8 0C343 0 300 0 257.2 0C214.3 0 171.7 0 128.8 0C86 0 43 0 21.5 0L0 0Z" fill="#370255"></path></svg>